# Made in Blockbench 5.0.7
mtllib Edge.mtl

o mesh
v 1 2 1
v 1 2 -1
v 0.9375 0 1
v 0.9375 0 -1
v -1 0 -1
v 1 0.1875 1
v 1 0.1875 -1
v 0.9375 0.1875 1
v 0.9375 0.1875 -1
v -1 0 1
vt 1 1
vt 1 0.09375
vt 0 0.09375
vt 0 1
vt 0 1
vt 1 1
vt 1 0
vt 0 0
vt 0 0
vt 0 0.09375
vt 1 0.09375
vt 1 0
vt 0 0.11179705295633602
vt 0.9568808551378046 0.11126668282438723
vt 0.9777647555195872 0.13113082656644748
vt 0.0016582019888938815 0.14014515869099153
vn -1 0 0
vn 0 1 0
vn -1 0 0
vn 0 1 0
usemtl m_a02ef4d6-5e74-e24c-5c81-0fe1ee23adcc
f 2/1/1 7/2/1 6/3/1 1/4/1
usemtl m_8849d05c-dcd7-4bde-c22b-d9c87cb835c7
f 10/5/2 3/6/2 4/7/2 5/8/2
usemtl m_a02ef4d6-5e74-e24c-5c81-0fe1ee23adcc
f 3/9/3 8/10/3 9/11/3 4/12/3
f 9/13/4 8/14/4 6/15/4 7/16/4