# Made in Blockbench 5.0.7
mtllib enemy_shoulder.mtl

o beveled_cuboid
v 0.6875 1.5 0.125
v 0.6875 1.5 -0.125
v 0.3125 1.5 0.125
v 0.3125 1.5 -0.125
v 0.75 1.0625 0.125
v 0.75 1.0625 -0.125
v 0.5 1.125 0.125
v 0.5 1.125 -0.125
v 0.375 1.125 0.125
v 0.3125 1.375 0.125
v 0.375 1.125 -0.125
v 0.3125 1.375 -0.125
v 0.875 1 0.125
v 0.8125 1.375 0.125
v 0.875 1 -0.125
v 0.8125 1.375 -0.125
v 0.75 1.0625 -0.25
v 0.6875 1.375 -0.25
v 0.375 1.125 -0.25
v 0.3125 1.375 -0.25
v 0.75 1.0625 0.25
v 0.6875 1.375 0.25
v 0.375 1.125 0.25
v 0.3125 1.375 0.25
v 0.875 1.1875 -0.125
v 0.875 1.1875 0.125
v 0.75 1.21875 0.25
v 0.3125 1.25 0.25
v 0.3125 1.25 0.125
v 0.3125 1.25 -0.125
v 0.3125 1.25 -0.25
v 0.75 1.21875 -0.25
v 0.9327424707819554 1 0.1489177145228181
v 0.9327424707819554 1.1875 0.1489177145228181
v 0.7739177145228181 1.21875 0.30774247078195544
v 0.7739177145228181 1.0625 0.30774247078195544
v 0.33080582617584076 1.25 0.29419417382415924
v 0.33080582617584076 1.125 0.29419417382415924
v 0.3125 1.125 0.125
v 0.3125 1.125 -0.125
v 0.33080582617584076 1.25 -0.29419417382415924
v 0.33080582617584076 1.125 -0.29419417382415924
v 0.7739177145228181 1.21875 -0.30774247078195544
v 0.7739177145228181 1.0625 -0.30774247078195544
v 0.9327424707819554 1.1875 -0.1489177145228181
v 0.9327424707819554 1 -0.1489177145228181
vt 0.7073767333048663 0.4792215909090909
vt 0.7073767333048663 0.44328636363636365
vt 0.7528312787594117 0.44328636363636365
vt 0.7528312787594117 0.4792215909090909
vt 0.23863636363636365 0.8522727272727273
vt 0.23863636363636365 0.8295454545454546
vt 0.2840909090909091 0.8295454545454546
vt 0.2840909090909091 0.8522727272727273
vt 0.36363636363636365 0.2954545454545454
vt 0.36363636363636365 0.34090909090909094
vt 0.29545454545454547 0.34090909090909094
vt 0.29545454545454547 0.2954545454545454
vt 0.2512323863636363 0.9195985777878714
vt 0.29808579545454544 0.9195985777878714
vt 0.29808579545454544 0.9650531232424168
vt 0.2512323863636364 0.9650531232424168
vt 0.8181818181818182 0.43181818181818177
vt 0.8181818181818182 0.40909090909090906
vt 0.8977272727272727 0.40340909090909094
vt 0.8863636363636364 0.43181818181818177
vt 0.8522727272727273 0.6363636363636364
vt 0.8409090909090909 0.6079545454545454
vt 0.9204545454545454 0.6136363636363636
vt 0.9204545454545454 0.6363636363636364
vt 0.7528312787594117 0.5113636363636364
vt 0.7073767333048663 0.5113636363636364
vt 0.7073767333048663 0.4792215909090909
vt 0.7528312787594117 0.4792215909090909
vt 0.2840909090909091 0.8522727272727273
vt 0.2840909090909091 0.875
vt 0.23863636363636365 0.875
vt 0.23863636363636365 0.8522727272727273
vt 0.5568181818181818 0.4204545454545454
vt 0.5568181818181818 0.4545454545454546
vt 0.48863636363636365 0.4545454545454546
vt 0.48863636363636365 0.4204545454545454
vt 0.875 0.4772727272727273
vt 0.8068181818181818 0.4772727272727273
vt 0.8068181818181818 0.44318181818181823
vt 0.875 0.44318181818181823
vt 0.32349602272727274 0.9650531232424168
vt 0.29808579545454544 0.9650531232424168
vt 0.29808579545454544 0.9195985777878714
vt 0.32349602272727274 0.9195985777878714
vt 0.2512323863636363 0.9195985777878714
vt 0.2512323863636363 0.9650531232424168
vt 0.2285051136363636 0.9650531232424168
vt 0.2285051136363636 0.9195985777878714
vt 0.2512323863636364 0.9650531232424168
vt 0.29808579545454544 0.9650531232424168
vt 0.29808579545454544 0.9877803959696895
vt 0.22918352272727274 0.9877803959696895
vt 0.29808579545454544 0.8968713050605986
vt 0.29808579545454544 0.9195985777878714
vt 0.2512323863636364 0.9195985777878714
vt 0.22918352272727274 0.8968713050605986
vt 0.7528312787594117 0.4792223951520419
vt 0.7633780372758158 0.44487049618656593
vt 0.7884790946771449 0.46573256973742316
vt 0.7806411419973354 0.4952782059669313
vt 0.6795417936580804 0.4952926836388696
vt 0.6717481780501278 0.46570521608883975
vt 0.6968949714160501 0.4448971415564299
vt 0.7073414694831633 0.47924275444849096
vt 0.2159090909090909 0.8522727272727273
vt 0.2159090909090909 0.8295454545454546
vt 0.23863636363636365 0.8295454545454546
vt 0.23863636363636365 0.8522727272727273
vt 0.2840909090909091 0.8522727272727273
vt 0.2840909090909091 0.8295454545454546
vt 0.3068181818181818 0.8295454545454546
vt 0.3068181818181818 0.8522727272727273
vt 0.29808579545454544 0.9650531232424168
vt 0.32349602272727274 0.9650531232424168
vt 0.29808579545454544 0.9877803959696895
vt 0.2512323863636363 0.9650531232424168
vt 0.2285051136363636 0.9877803959696895
vt 0.2285051136363636 0.9650531232424168
vt 0.29808579545454544 0.9195985777878714
vt 0.29808579545454544 0.8968713050605986
vt 0.32349602272727274 0.9195985777878714
vt 0.2512323863636363 0.9195985777878714
vt 0.2285051136363636 0.9195985777878714
vt 0.2285051136363636 0.8968713050605986
vt 0.7073767333048663 0.5113636363636364
vt 0.6795417936580804 0.4952926836388696
vt 0.7073767333048663 0.4792223951520419
vt 0.2840909090909091 0.875
vt 0.2840909090909091 0.8522727272727273
vt 0.3068181818181818 0.8522727272727273
vt 0.7528312787594117 0.5113636363636364
vt 0.7528312787594117 0.4792223951520419
vt 0.7806662184061977 0.4952926836388696
vt 0.23863636363636365 0.875
vt 0.2159090909090909 0.8522727272727273
vt 0.23863636363636365 0.8522727272727273
vt 0.20454545454545456 0.9659090909090909
vt 0.20454545454545456 1
vt 0.14772727272727273 1
vt 0.14772727272727273 0.9659090909090909
vt 0.9318181818181818 0.4375
vt 0.9318181818181818 0.47159090909090906
vt 0.8863636363636364 0.4772727272727273
vt 0.8863636363636364 0.44886363636363635
vt 0.12513909432486844 0.09724491691674342
vt 0.15326999658422247 0.10121087006266738
vt 0.14764381613235164 0.18181818181818177
vt 0.12513909432486844 0.1786454193014425
vt 0.9545454545454546 0.7727272727272727
vt 0.9545454545454546 0.7954545454545454
vt 0.9204545454545454 0.7954545454545454
vt 0.9204545454545454 0.7727272727272727
vt 0.2840909090909091 0.8068181818181819
vt 0.2840909090909091 0.8295454545454546
vt 0.23863636363636365 0.8295454545454546
vt 0.23863636363636365 0.8068181818181819
vt 0.9545454545454546 0.5681818181818181
vt 0.9545454545454546 0.5909090909090908
vt 0.9204545454545454 0.5909090909090908
vt 0.9204545454545454 0.5681818181818181
vt 0.9226365972067072 0.5340909090909092
vt 0.9258093597234466 0.551192001366311
vt 0.8452020479679322 0.5568181818181819
vt 0.841236094822008 0.5340909090909092
vt 0.9318181818181818 0.07386363636363635
vt 0.9318181818181818 0.10227272727272729
vt 0.8863636363636364 0.09659090909090906
vt 0.8863636363636364 0.0625
vt 0.37986286682874854 0.2510107719002771
vt 0.4089029652800653 0.280280025247324
vt 0.3984043667299684 0.2846287790790396
vt 0.3754799564731106 0.2614263958409109
vt 0.3335262680006688 0.9698657721349658
vt 0.3021445970507335 0.9983641247466893
vt 0.2981446778185745 0.9877277307364449
vt 0.32349602272727274 0.9650531232424168
vt 0.2990830377143766 0.252937089896211
vt 0.37986286682874854 0.2510107719002771
vt 0.3754553624069645 0.2614848416048815
vt 0.295709533829943 0.26095394284811524
vt 0.30180645093048536 0.9990490297054788
vt 0.22046988636363637 0.9958156232424168
vt 0.22850519069530167 0.9877803189107515
vt 0.2975935408693932 0.9886858977089301
vt 0.12342556443622897 0.9943181818181818
vt 0.11507892655932243 0.9967629354975155
vt 0.09248352647286194 0.9943181818181818
vt 0.22046988636363637 0.9958156232424168
vt 0.21714147727272726 0.9650531232424168
vt 0.2285051136363636 0.9650531232424168
vt 0.2285051136363636 0.9877803959696895
vt 0.21714147727272726 0.9650531232424168
vt 0.21714147727272726 0.9195985777878714
vt 0.2285051136363636 0.9195985777878714
vt 0.2285051136363636 0.9650531232424168
vt 0.3904269222942123 0.09090909090909094
vt 0.3904269222942123 0.12185112887245786
vt 0.3879821686148786 0.09925572878599742
vt 0.21714147727272726 0.9195985777878714
vt 0.22046988636363637 0.8888360777878713
vt 0.2285051136363636 0.8968713050605986
vt 0.2285051136363636 0.9195985777878714
vt 0.3797958222641947 0.36363636363636365
vt 0.2990159931498228 0.3617100456404295
vt 0.2956424892653892 0.3536931926885254
vt 0.3753883178424106 0.35316229393175924
vt 0.22046988636363637 0.8888360777878713
vt 0.3018326472358612 0.8863636363636364
vt 0.29752832624569336 0.8968805300218683
vt 0.22842454663066494 0.8967907380549
vt 0.4089029652800653 0.3344322979745967
vt 0.3797958222641947 0.36363636363636365
vt 0.3753883178424106 0.35316229393175924
vt 0.3984629493659623 0.3301078103781824
vt 0.301754023201523 0.8863683761927188
vt 0.33356316484954046 0.9143887951904517
vt 0.32343714036324367 0.9195459125546268
vt 0.29808579545454544 0.8968713050605986
vt 0.4089029652800653 0.280280025247324
vt 0.4089029652800653 0.3344322979745967
vt 0.39840410164370166 0.33008343433823306
vt 0.39840410164370166 0.28462888888368765
vt 0.3339948863636364 0.9152497141515077
vt 0.3339948863636364 0.9694019868787804
vt 0.32349602272727274 0.9650531232424168
vt 0.32349602272727274 0.9195985777878714
vn 0.948683298050514 0.316227766016838 0
vn -1 0 0
vn 0 1 0
vn -0.24253562503633297 -0.9701425001453319 0
vn 0 0 1
vn 0 0 -1
vn 0.7071067811865476 0.7071067811865476 0
vn -1 0 0
vn 0 0.7071067811865476 0.7071067811865476
vn 0 0.7071067811865476 -0.7071067811865476
vn -0.44721359549995804 -0.8944271909999161 0
vn 0 -1 0
vn -0.24253562503633297 -0.9701425001453319 0
vn -0.24253562503633297 -0.9701425001453319 0
vn 0.7158599835262722 0.23861999450875743 -0.656204984899083
vn 0.7124704998790965 0.2849881999516386 0.6412234498911868
vn -1 0 0
vn -1 0 0
vn -0.44721359549995804 -0.8944271909999161 0
vn 0 -1 0
vn -0.44721359549995804 -0.8944271909999161 0
vn 0 -1 0
vn 0.5773502691896258 0.5773502691896258 0.5773502691896258
vn -1 0 0
vn 0.5773502691896258 0.5773502691896258 -0.5773502691896258
vn -1 0 0
vn 1 0 0
vn 0.7071067811865476 0 0.7071067811865476
vn -0.030561059019320796 0 0.9995329017454192
vn -0.994197898955828 0 0.10756643394580502
vn -1 0 0
vn -0.994197898955828 0 -0.10756643394580502
vn -0.030561059019320793 0 -0.9995329017454191
vn 0.7071067811865476 0 -0.7071067811865476
vn 0.05698646323982579 0.9888503307302843 -0.13757749242526335
vn -0.26643535327474654 -0.9575137711827972 0.11036113682206676
vn 0.07121604470288474 0.9970246258403865 -0.029498651574503456
vn -0.13436944982763288 -0.981778845721397 -0.13436944982763288
vn 0 -1 0
vn 0 -1 0
vn 0 -1 0
vn 0 -1 0
vn 0 -1 0
vn 0.07121604470288474 0.9970246258403865 0.029498651574503418
vn -0.14117933822827164 -0.9882553675979016 -0.05847839662100844
vn 0.13757749242526335 0.9888503307302843 0.05698646323982579
vn -0.11036113682206676 -0.9575137711827972 -0.26643535327474654
vn 0 1 0
vn 0 -1 0
usemtl m_40a59f61-5dc0-d7ed-35ad-e34641e6720f
f 14/1/1 26/2/1 25/3/1 16/4/1
f 12/5/2 30/6/2 29/7/2 10/8/2
f 1/9/3 2/10/3 4/11/3 3/12/3
f 8/13/4 6/14/4 5/15/4 7/16/4
f 24/17/5 28/18/5 27/19/5 22/20/5
f 18/21/6 32/22/6 31/23/6 20/24/6
f 2/25/7 1/26/7 14/27/7 16/28/7
f 10/29/8 3/30/8 4/31/8 12/32/8
f 22/33/9 1/34/9 3/35/9 24/36/9
f 4/37/10 2/38/10 18/39/10 20/40/10
f 13/41/11 5/42/11 6/43/11 15/44/11
f 8/45/12 7/46/12 9/47/12 11/48/12
f 7/49/13 5/50/13 21/51/13 23/52/13
f 17/53/14 6/54/14 8/55/14 19/56/14
f 16/57/15 25/58/15 32/59/15 18/60/15
f 22/61/16 27/62/16 26/63/16 14/64/16
f 20/65/17 31/66/17 30/67/17 12/68/17
f 10/69/18 29/70/18 28/71/18 24/72/18
f 5/73/19 13/74/19 21/75/19
f 7/76/20 23/77/20 9/78/20
f 6/79/21 17/80/21 15/81/21
f 8/82/22 11/83/22 19/84/22
f 1/85/23 22/86/23 14/87/23
f 3/88/24 10/89/24 24/90/24
f 2/91/25 16/92/25 18/93/25
f 4/94/26 20/95/26 12/96/26
f 46/97/27 45/98/27 34/99/27 33/100/27
f 33/101/28 34/102/28 35/103/28 36/104/28
f 36/105/29 35/106/29 37/107/29 38/108/29
f 38/109/30 37/110/30 29/111/30 39/112/30
f 39/113/31 29/114/31 30/115/31 40/116/31
f 40/117/32 30/118/32 41/119/32 42/120/32
f 42/121/33 41/122/33 43/123/33 44/124/33
f 44/125/34 43/126/34 45/127/34 46/128/34
f 35/129/35 34/130/35 26/131/35 27/132/35
f 33/133/36 36/134/36 21/135/36 13/136/36
f 37/137/37 35/138/37 27/139/37 28/140/37
f 36/141/38 38/142/38 23/143/38 21/144/38
f 37/145/39 28/146/39 29/147/39
f 38/148/40 39/149/40 9/150/40 23/151/40
f 39/152/41 40/153/41 11/154/41 9/155/41
f 41/156/42 30/157/42 31/158/42
f 40/159/43 42/160/43 19/161/43 11/162/43
f 43/163/44 41/164/44 31/165/44 32/166/44
f 42/167/45 44/168/45 17/169/45 19/170/45
f 45/171/46 43/172/46 32/173/46 25/174/46
f 44/175/47 46/176/47 15/177/47 17/178/47
f 34/179/48 45/180/48 25/181/48 26/182/48
f 46/183/49 33/184/49 13/185/49 15/186/49