# Made in Blockbench 5.1.1
mtllib cliff.mtl

o mesh
v 1 2.1875 -0.75
v 1 2.1875 -1.1875
v 1 2 -0.75
v 1 0 -1.1875
v -1 2.1875 -0.75
v -1 2.1875 -1.1875
v -1 2 -0.75
v -1 0 -1.1875
v -0.6000000000000001 2 -0.75
v -0.6000000000000001 2.1875 -0.75
v -0.20000000000000018 2 -0.75
v -0.20000000000000018 2.1875 -0.75
v 0.19999999999999984 2 -0.75
v 0.19999999999999984 2.1875 -0.75
v 0.5999999999999999 2 -0.75
v 0.5999999999999999 2.1875 -0.75
v -0.6000000000000001 2.1875 -1.1875
v -0.20000000000000018 2.1875 -1.1875
v 0.19999999999999984 2.1875 -1.1875
v 0.5999999999999999 2.1875 -1.1875
v -0.6000000000000001 0 -1.1875
v -0.20000000000000018 0 -1.1875
v 0.19999999999999984 0 -1.1875
v 0.5999999999999999 0 -1.1875
v 0.19999999999999984 1.8854166666666667 -1.1875
v -0.20000000000000018 1.8229166666666667 -1.1875
v -0.20000000000000018 1.4583333333333335 -1.1875
v 0.19999999999999984 0.96875 -1.1875
v -0.20000000000000018 1.09375 -1.1875
v 0.19999999999999984 0.7291666666666667 -1.1875
v -0.20000000000000018 0.7291666666666667 -1.1875
v 0.19999999999999984 0.36458333333333337 -1.1875
v -0.20000000000000018 0.36458333333333337 -1.1875
v -0.6000000000000001 1.8229166666666667 -1.1875
v -0.6000000000000001 1.4583333333333335 -1.1875
v -0.6000000000000001 1.09375 -1.1875
v -0.6000000000000001 0.36458333333333337 -1.1875
v -1 1.8229166666666667 -1.1875
v -1 1.4583333333333335 -1.1875
v -1 1.09375 -1.1875
v -1 0.7291666666666667 -1.1875
v -1 0.36458333333333337 -1.1875
v 0.5999999999999999 1.8854166666666667 -1.1875
v 0.5999999999999999 1.4583333333333335 -1.1875
v 0.5999999999999999 0.96875 -1.1875
v 0.5999999999999999 0.7291666666666667 -1.1875
v 0.5999999999999999 0.36458333333333337 -1.1875
v 1 1.8229166666666667 -1.1875
v 1 1.4583333333333335 -1.1875
v 1 0.96875 -1.1875
v 1 0.7291666666666667 -1.1875
v 1 0.36458333333333337 -1.1875
v 0.4999999999999999 1.4583333333333335 -1.1875
v 0.49999999999999983 1.1848958333333335 -1.1875
v 0.19999999999999984 1.1848958333333335 -1.1875
v -0.03750000000000017 1.1848958333333335 -1.1875
v -0.10000000000000017 1.3958333333333335 -1.1875
v 0.19999999999999984 1.7942708333333335 -1.1875
v -0.10000000000000017 1.7317708333333335 -1.1875
v 0.49999999999999983 1.7317708333333335 -1.1875
v 0.4999999999999999 1.4583333333333335 -1.125
v 0.49999999999999983 1.1848958333333335 -1.125
v 0.19999999999999984 1.1848958333333335 -1.125
v 0.19999999999999984 1.4583333333333335 -1.125
v -0.10000000000000017 1.1848958333333335 -1.125
v -0.10000000000000017 1.4583333333333335 -1.125
v 0.19999999999999984 1.7317708333333335 -1.125
v -0.10000000000000017 1.7317708333333335 -1.125
v 0.49999999999999983 1.7317708333333335 -1.125
v -0.30000000000000016 0.9401041666666667 -1.1875
v -0.30000000000000016 0.7291666666666667 -1.1875
v -0.6000000000000001 0.9401041666666667 -1.1875
v -0.30000000000000016 0.4557291666666667 -1.1875
v -0.5375000000000001 0.5182291666666667 -1.1875
v -0.8375 0.5182291666666667 -1.1875
v -0.9 0.7291666666666667 -1.1875
v -0.9 1.0026041666666667 -1.1875
v -0.30000000000000016 1.0026041666666667 -1.0625
v -0.30000000000000016 0.7291666666666667 -1.0625
v -0.6000000000000001 0.7291666666666667 -1.0625
v -0.6000000000000001 1.0026041666666667 -1.0625
v -0.30000000000000016 0.4557291666666667 -1.0625
v -0.6000000000000001 0.45572916666666674 -1.0625
v -0.9 0.4557291666666667 -1.0625
v -0.9 0.7291666666666667 -1.0625
v -0.9 1.0026041666666667 -1.0625
v 0.19999999999999984 0 -1.25
v 0.5999999999999999 0.36458333333333337 -1.25
v 0.19999999999999984 0.36458333333333337 -1.25
v 0.5999999999999999 0 -1.25
v 0.5999999999999999 0.6666666666666667 -1.3125
v 0.19999999999999984 0.6666666666666667 -1.3125
v -0.20000000000000018 0 -1.25
v -0.20000000000000018 0.36458333333333337 -1.25
v 1 0.36458333333333337 -1.25
v 1 0 -1.25
v -0.20000000000000018 1.8229166666666667 -1.3125
v -0.20000000000000018 1.4583333333333335 -1.3125
v -0.5375000000000001 1.4583333333333335 -1.3125
v -0.5375000000000001 1.8229166666666667 -1.3125
v -1 1.4583333333333335 -1.3125
v -1 1.8229166666666667 -1.3125
v -0.20000000000000018 2.125 -1.3125
v -0.6000000000000001 2.125 -1.3125
v 1 1.4583333333333335 -1.3125
v 1 1.09375 -1.3125
v 0.5999999999999999 1.09375 -1.3125
v 0.5999999999999999 1.4583333333333335 -1.3125
v 1 2.3125 -1.1875
v 0.5999999999999999 2.3125 -0.75
v 0.5999999999999999 2.3125 -1.1875
v 1 2.3125 -0.75
v -0.20000000000000018 2.3125 -0.75
v 0.19999999999999984 2.3125 -0.75
v 0.19999999999999984 2.3125 -1.1875
v -0.20000000000000018 2.3125 -1.1875
v -0.6000000000000001 2.3125 -0.75
v -0.6000000000000001 2.3125 -1.1875
v -0.6000000000000001 2.4375 -0.75
v -0.20000000000000018 2.4375 -0.75
v -0.20000000000000018 2.4375 -1.1875
v -0.6000000000000001 2.4375 -1.1875
v 1 0 -0.75
v 1 1.6 -0.75
v 1 1.2000000000000002 -0.75
v 1 0.8000000000000002 -0.75
v 1 0.4000000000000001 -0.75
v -1 0 -0.75
v -1 1.6 -0.75
v -1 1.2000000000000002 -0.75
v -1 0.8000000000000002 -0.75
v -1 0.4000000000000001 -0.75
vt 0.2109375 0.953125
vt 0.1640625 0.953125
vt 0.1640625 0.8984375
vt 0.2109375 0.8984375
vt 0.5234375 0.65625
vt 0.4734375 0.65625
vt 0.4734375 0.6328125
vt 0.5234375 0.6328125
vt 0.5375 0.41586718749999996
vt 0.5375 0.46143984375
vt 0.4875 0.46143984375
vt 0.4875 0.41586718749999996
vt 0.2734375 0.6328125
vt 0.3234375 0.6328125
vt 0.3234375 0.65625
vt 0.2734375 0.65625
vt 0.3234375 0.6328125
vt 0.3734375 0.6328125
vt 0.3734375 0.65625
vt 0.3234375 0.65625
vt 0.3734375 0.6328125
vt 0.4234375 0.6328125
vt 0.4234375 0.65625
vt 0.3734375 0.65625
vt 0.4234375 0.6328125
vt 0.4734375 0.6328125
vt 0.4734375 0.65625
vt 0.4234375 0.65625
vt 0.53125 0.6171875
vt 0.578125 0.6171875
vt 0.578125 0.671875
vt 0.53125 0.671875
vt 0.53125 0.5078125
vt 0.578125 0.5078125
vt 0.578125 0.5625
vt 0.53125 0.5625
vt 0.5859375 0.6171875
vt 0.6328125 0.6171875
vt 0.6328125 0.671875
vt 0.5859375 0.671875
vt 0.5859375 0.5078125
vt 0.6328125 0.5078125
vt 0.6328125 0.5625
vt 0.5859375 0.5625
vt 0.25 0.6953125
vt 0.25 0.7408851562500001
vt 0.2 0.7408851562500001
vt 0.2 0.6953125
vt 0.2 0.6953125
vt 0.2 0.7408851562500001
vt 0.15 0.7408851562500001
vt 0.15 0.6953125
vt 0.6375 0.41586718749999996
vt 0.6375 0.46143984375
vt 0.5875 0.46143984375
vt 0.5875 0.41586718749999996
vt 0.5875 0.41586718749999996
vt 0.5875 0.46143984375
vt 0.5375 0.46143984375
vt 0.5375 0.41586718749999996
vt 0.1 0.96875
vt 0.1 0.9309898437499999
vt 0.15 0.9231773437499999
vt 0.15 0.96875
vt 0.5546875 0.828125
vt 0.5546875 0.7939453125
vt 0.5921875 0.7939453125
vt 0.5921875 0.828125
vt 0.5546875 0.7939453125
vt 0.5546875 0.759765625
vt 0.5921875 0.759765625
vt 0.5921875 0.7939453125
vt 0.1 0.81640625
vt 0.1 0.7864585937499999
vt 0.15 0.7864585937499999
vt 0.15 0.83203125
vt 0.1 0.7864585937499999
vt 0.1 0.7408851562500001
vt 0.15 0.7408851562500001
vt 0.15 0.7864585937499999
vt 0.0007812499999999972 0.7265625
vt 0.0007812499999999972 0.6888023437499999
vt 0.04296874999999999 0.6888023437499999
vt 0.05078124999999999 0.7265625
vt 0.0007812499999999972 0.6888023437499999
vt 0.0007812499999999972 0.6432289062500001
vt 0.04296874999999999 0.6432289062500001
vt 0.04296874999999999 0.6888023437499999
vt 0.15 0.8776039062500001
vt 0.15 0.83203125
vt 0.2 0.83203125
vt 0.2 0.8776039062500001
vt 0.5171875 0.75
vt 0.5171875 0.7158203125
vt 0.5546875 0.7158203125
vt 0.5546875 0.75
vt 0.5171875 0.7158203125
vt 0.5171875 0.681640625
vt 0.5546875 0.681640625
vt 0.5546875 0.7158203125
vt 0.640625 0.703125
vt 0.640625 0.65625
vt 0.6875 0.65625
vt 0.6875 0.703125
vt 0.04296874999999999 0.6888023437499999
vt 0.04296874999999999 0.6432289062500001
vt 0.10078125 0.6432289062500001
vt 0.10078125 0.6888023437499999
vt 0.2 0.8776039062500001
vt 0.2 0.83203125
vt 0.25 0.83203125
vt 0.25 0.8776039062500001
vt 0.5546875 0.75
vt 0.5546875 0.7158203125
vt 0.5921875 0.7158203125
vt 0.5921875 0.75
vt 0.5546875 0.7158203125
vt 0.5546875 0.681640625
vt 0.5921875 0.681640625
vt 0.5921875 0.7158203125
vt 0.05 0.96875
vt 0.05 0.9309898437499999
vt 0.1 0.9309898437499999
vt 0.1 0.96875
vt 0.5171875 0.828125
vt 0.5171875 0.7939453125
vt 0.5546875 0.7939453125
vt 0.5546875 0.828125
vt 0.5171875 0.7939453125
vt 0.5171875 0.759765625
vt 0.5546875 0.759765625
vt 0.5546875 0.7939453125
vt 0.05 0.81640625
vt 0.05 0.7864585937499999
vt 0.1 0.7864585937499999
vt 0.1 0.81640625
vt 0.5375 0.5
vt 0.5375 0.46143984375
vt 0.5875 0.46143984375
vt 0.5875 0.5
vt 0 0.96875
vt 0 0.9231773437499999
vt 0.05 0.9309898437499999
vt 0.05 0.96875
vt 0 0.9231773437499999
vt 0 0.8776039062500001
vt 0.05 0.8776039062500001
vt 0.05 0.9309898437499999
vt 0.640625 0.6484375
vt 0.640625 0.6015625
vt 0.6875 0.6015625
vt 0.6875 0.6484375
vt 0 0.81640625
vt 0 0.7864585937499999
vt 0.05 0.7864585937499999
vt 0.05 0.81640625
vt 0 0.7864585937499999
vt 0 0.7408851562500001
vt 0.05 0.7408851562500001
vt 0.05 0.7864585937499999
vt 0.0625 0.8434242187500001
vt 0.0625 0.8776039062500001
vt 0.05 0.8776039062500001
vt 0.05 0.81640625
vt 0.1 0.8434242187500001
vt 0.0625 0.8434242187500001
vt 0.05 0.81640625
vt 0.1 0.81640625
vt 0.1296875 0.8434242187500001
vt 0.1 0.8434242187500001
vt 0.1 0.81640625
vt 0.15 0.83203125
vt 0.1375 0.8697914062500001
vt 0.1296875 0.8434242187500001
vt 0.15 0.83203125
vt 0.15 0.8776039062500001
vt 0.1375 0.9117835937500001
vt 0.1375 0.8697914062500001
vt 0.15 0.8776039062500001
vt 0.15 0.9231773437499999
vt 0.09999999999999999 0.9195960937500001
vt 0.1375 0.9117835937500001
vt 0.15 0.9231773437499999
vt 0.09999999999999999 0.9309898437499999
vt 0.0625 0.8776039062500001
vt 0.0625 0.9117835937500001
vt 0.05 0.9309898437499999
vt 0.05 0.8776039062500001
vt 0.0625 0.9117835937500001
vt 0.1 0.9195960937500001
vt 0.1 0.9309898437499999
vt 0.05 0.9309898437499999
vt 0.125 0.228515625
vt 0.125 0.2626953125
vt 0.1171875 0.2626953125
vt 0.1171875 0.228515625
vt 0.0390625 0.9921875
vt 0.0765625 0.9921875
vt 0.0765625 1
vt 0.0390625 1
vt 0.0015624999999999944 0.9921875
vt 0.0390625 0.9921875
vt 0.0390625 1
vt 0.009374999999999998 1
vt 0.028014062500000006 0.8671875
vt 0.028014062500000006 0.8359375
vt 0.0390625 0.8359375
vt 0.03353828125000001 0.859375
vt 0.71875 0.703125
vt 0.71875 0.6689453125
vt 0.7265625 0.6611328125
vt 0.7265625 0.703125
vt 0.1171875 0.8671875
vt 0.078125 0.8671875
vt 0.078125 0.859375
vt 0.1171875 0.859375
vt 0.125 0.2626953125
vt 0.125 0.296875
vt 0.1171875 0.296875
vt 0.1171875 0.2626953125
vt 0.2578125 0.828125
vt 0.296875 0.828125
vt 0.296875 0.8359375
vt 0.2578125 0.8304125
vt 0.1625 0.7864585937499999
vt 0.1625 0.8128257812499999
vt 0.15 0.83203125
vt 0.15 0.7864585937499999
vt 0.1625 0.8128257812499999
vt 0.2 0.8128257812499999
vt 0.2 0.83203125
vt 0.15 0.83203125
vt 0.1625 0.7522789062499999
vt 0.1625 0.7864585937499999
vt 0.15 0.7864585937499999
vt 0.15 0.7408851562500001
vt 0.1921875 0.7600914062499999
vt 0.1625 0.7522789062499999
vt 0.15 0.7408851562500001
vt 0.2 0.7408851562500001
vt 0.2296875 0.7600914062499999
vt 0.1921875 0.7600914062499999
vt 0.2 0.7408851562500001
vt 0.25 0.7408851562500001
vt 0.2375 0.7864585937499999
vt 0.2296875 0.7600914062499999
vt 0.25 0.7408851562500001
vt 0.25 0.7864585937499999
vt 0.2375 0.8206382812499999
vt 0.2375 0.7864585937499999
vt 0.25 0.7864585937499999
vt 0.25 0.83203125
vt 0.2 0.8128257812499999
vt 0.2375 0.8206382812499999
vt 0.25 0.83203125
vt 0.2 0.83203125
vt 0.5546875 0.3095703125
vt 0.5546875 0.34375
vt 0.5390625 0.3359375
vt 0.5390625 0.3095703125
vt 0.1390625 0.7205937499999999
vt 0.1015625 0.7205937499999999
vt 0.1015625 0.703125
vt 0.1390625 0.703125
vt 0.5546875 0.275390625
vt 0.5546875 0.3095703125
vt 0.5390625 0.3095703125
vt 0.5390625 0.275390625
vt 0.2211028906089096 0.3140973279369319
vt 0.2211028906089096 0.2765973279369319
vt 0.2367278906089096 0.2765973279369319
vt 0.2367278906089096 0.3062848279369319
vt 0.22271871308823787 0.3515625
vt 0.22110289060890964 0.3140973279369319
vt 0.23821878691176213 0.3055393797855056
vt 0.2398346093910904 0.3430045518485737
vt 0.510796875 0.3095703125
vt 0.510796875 0.275390625
vt 0.528265625 0.283203125
vt 0.524771875 0.3095703125
vt 0.510796875 0.34375
vt 0.510796875 0.3095703125
vt 0.526421875 0.3095703125
vt 0.526421875 0.34375
vt 0.1015625 0.7205937499999999
vt 0.0640625 0.7205937499999999
vt 0.0640625 0.7049687499999999
vt 0.1015625 0.7049687499999999
vt 0.7015625 0.4140625
vt 0.7515625 0.4140625
vt 0.7515625 0.421875
vt 0.7015625 0.421875
vt 0.390625 0.6796875
vt 0.3984375 0.71875
vt 0.3828125 0.7265625
vt 0.3828125 0.6796875
vt 0.1953125 0.6015625
vt 0.203125 0.5625
vt 0.2109375 0.5625
vt 0.2109375 0.609375
vt 0.6953125 0.515625
vt 0.7421875 0.515625
vt 0.7421875 0.53125
vt 0.6953125 0.53125
vt 0.21875 0.609375
vt 0.21875 0.5625
vt 0.2265625 0.5625
vt 0.2265625 0.609375
vt 0.1328125 1
vt 0.0859375 1
vt 0.0859375 0.9921875
vt 0.1328125 0.9921875
vt 0.6515625 0.4140625
vt 0.7015625 0.4140625
vt 0.7015625 0.421875
vt 0.6515625 0.421875
vt 0.4765625 0.78125
vt 0.4296875 0.78125
vt 0.4296875 0.7734375
vt 0.4765625 0.7734375
vt 0.140625 0.25
vt 0.140625 0.296875
vt 0.1328125 0.296875
vt 0.1328125 0.25
vt 0.7515625 0.4140625
vt 0.8015625 0.4140625
vt 0.8015625 0.421875
vt 0.7515625 0.421875
vt 0.234375 0.9088539062500001
vt 0.234375 0.9544273437499999
vt 0.21875 0.9544273437499999
vt 0.21875 0.9088539062500001
vt 0.58984375 0.984375
vt 0.63203125 0.984375
vt 0.63203125 1
vt 0.58203125 1
vt 0.53203125 0.984375
vt 0.58984375 0.984375
vt 0.58203125 1
vt 0.53203125 1
vt 0.453125 0.46875
vt 0.453125 0.421875
vt 0.46875 0.421875
vt 0.46875 0.46875
vt 0.39609375 0.625
vt 0.33828125 0.625
vt 0.33828125 0.609375
vt 0.38828125 0.609375
vt 0.234375 0.9544273437499999
vt 0.234375 0.9921875
vt 0.21875 1
vt 0.21875 0.9544273437499999
vt 0.050368750000000004 0.2904640624999999
vt 0.046875 0.25
vt 0.0625 0.25
vt 0.0625 0.296875
vt 0.6953125 0.6328125
vt 0.7421875 0.6328125
vt 0.7421875 0.6484375
vt 0.6953125 0.6484375
vt 0.625 0.29817734374999993
vt 0.625 0.34375
vt 0.609375 0.34375
vt 0.609375 0.28255234374999993
vt 0.125 0.8984375
vt 0.078125 0.8984375
vt 0.078125 0.875
vt 0.125 0.875
vt 0.6328125 0.34375
vt 0.6328125 0.29817734374999993
vt 0.6484375 0.28255234374999993
vt 0.6484375 0.34375
vt 0.7265625 0.3359375
vt 0.6796875 0.3359375
vt 0.6796875 0.3203125
vt 0.7265625 0.3203125
vt 0.05 0.984375
vt 0 0.984375
vt 0 0.96875
vt 0.05 0.96875
vt 0.3125 0.7265625
vt 0.2578125 0.7265625
vt 0.2578125 0.7109375
vt 0.3125 0.7109375
vt 0.5234375 0.671875
vt 0.4734375 0.671875
vt 0.4734375 0.65625
vt 0.5234375 0.65625
vt 0.484375 0.8046875
vt 0.4296875 0.8046875
vt 0.4296875 0.7890625
vt 0.484375 0.7890625
vt 0.4234375 0.671875
vt 0.3734375 0.671875
vt 0.3734375 0.65625
vt 0.4234375 0.65625
vt 0.3359375 0.5078125
vt 0.28125 0.5078125
vt 0.28125 0.4921875
vt 0.3359375 0.4921875
vt 0.15 0.984375
vt 0.1 0.984375
vt 0.1 0.96875
vt 0.15 0.96875
vt 0.3734375 0.671875
vt 0.3234375 0.671875
vt 0.3234375 0.65625
vt 0.3734375 0.65625
vt 0.2 0.984375
vt 0.15 0.984375
vt 0.15 0.96875
vt 0.2 0.96875
vt 0.375 0.7109375
vt 0.3203125 0.7109375
vt 0.3203125 0.6953125
vt 0.375 0.6953125
vt 0.3734375 0.6875
vt 0.3234375 0.6875
vt 0.3234375 0.671875
vt 0.3734375 0.671875
vt 0.375 0.328125
vt 0.3203125 0.328125
vt 0.3203125 0.3125
vt 0.375 0.3125
vt 0.2 1
vt 0.15 1
vt 0.15 0.984375
vt 0.2 0.984375
vt 0.375 0.7265625
vt 0.3203125 0.7265625
vt 0.3203125 0.7109375
vt 0.375 0.7109375
vt 0.0546875 0.95
vt 0.0546875 0.99557265625
vt 0 1
vt 0 0.95
vt 0.0546875 0.94557265625
vt 0.0546875 0.99114609375
vt 0 1
vt 0 0.95
vt 0.0546875 0.97109375
vt 0 1
vt 0 0.95
vt 0.0546875 0.94114609375
vt 0.0546875 0.92109375
vt 0.0546875 0.98229140625
vt 0 1
vt 0 0.95
vt 0.0546875 0.9322914062500001
vt 0.0546875 0.9778648437499999
vt 0 1
vt 0 0.95
vt 0 0.9765625
vt 0.0546875 0.9544273437499999
vt 0.0546875 1
vt 0 1
vt 0 0.95
vt 0.0546875 0.95
vt 0.0546875 1
vt 0 0.99557265625
vt 0 0.94557265625
vt 0.0546875 0.95
vt 0.0546875 1
vt 0 0.99114609375
vt 0.0546875 1
vt 0 0.98671875
vt 0 0.94114609375
vt 0.0546875 0.95
vt 0 0.93671875
vt 0.0546875 0.95
vt 0.0546875 1
vt 0 0.98229140625
vt 0.0546875 1
vt 0 0.9778648437499999
vt 0 0.9322914062500001
vt 0.0546875 0.95
vt 0 0.9544273437499999
vt 0.0546875 0.9765625
vt 0.0546875 1
vt 0 1
vn 0 1 0
vn 0 0 1
vn 0 0 -1
vn 0 0 1
vn 0 0 1
vn 0 0 1
vn 0 0 1
vn 0 1 0
vn 0 1 0
vn 0 1 0
vn 0 1 0
vn 0 0 -1
vn 0 0 -1
vn 0 0 -1
vn 0 0 -1
vn 0 0 -1
vn 0 0 -1
vn 0 0 -1
vn 0 0 -1
vn 0 0 -1
vn 0 0 -1
vn 0 0 -1
vn 0 0 -1
vn 0 0 -1
vn 0 0 -1
vn 0 0 -1
vn 0 0 -1
vn 0 0 -1
vn 0 0 -1
vn 0 0 -1
vn 0 0 -1
vn 0 0 -1
vn 0 0 -1
vn 0 0 -1
vn 0 -0.2026056040359523 -0.9792604195071029
vn 0 0 -1
vn 0 0 -1
vn 0 0 -1
vn 0 0 -1
vn 0 0 -1
vn 0 0 -1
vn 0 0 -1
vn 0 0 -1
vn 0 0 -1
vn 0 0 -1
vn 0 0 -1
vn 0 0 -1
vn 0 0 -1
vn -1 2.0301221021717148e-16 0
vn 0 1 0
vn 0 1 0
vn 0.7071067811865476 0 0.7071067811865476
vn 1 0 0
vn 0 -1 0
vn -1 -2.0301221021717148e-16 0
vn 0 -0.7071067811865476 -0.7071067811865476
vn 0 0 -1
vn 0 0 -1
vn 0 0 -1
vn 0 0 -1
vn 0 0 -1
vn 0 0 -1
vn 0 0 -1
vn 0 0 -1
vn -1 0 0
vn 0 -0.894427190999916 0.447213595499958
vn -1 0 0
vn 1.8503717077085946e-16 1 0
vn -1.6550227688315158e-16 0.894427190999916 0.44721359549995787
vn 0.894427190999916 0 0.447213595499958
vn 1 0 0
vn 0 -1 0
vn 0 -1 0
vn 1 0 0
vn -1 0 0
vn 0 0.8944271909999161 -0.44721359549995804
vn -1 0 0
vn 0 1 0
vn 0 -1 0
vn 0 1 0
vn 1 0 0
vn 0 -1 0
vn 1 0 0
vn 0 -1 0
vn 0 -1 0
vn -1 0 0
vn 0 1 0
vn 1 0 0
vn -0.8794948277215525 -0.181964447114804 -0.43974741386077626
vn 0 0.894427190999916 -0.447213595499958
vn 1 0 0
vn 0 -0.7071067811865476 -0.7071067811865476
vn -1 0 0
vn 0 1 0
vn 0 0 -1
vn -1 0 0
vn 0 0 1
vn 1 0 0
vn 0 0 1
vn 1 0 0
vn 0 0 -1
vn 0 0 1
vn 0 0 -1
vn -1 0 0
vn 0 0 1
vn 1 0 0
vn 0 0 -1
vn -1 0 0
vn 1 0 0
vn 1 0 0
vn 1 0 0
vn 1 0 0
vn 1 0 0
vn 1 0 0
vn -1 0 0
vn -1 0 0
vn -1 0 0
vn -1 0 0
vn -1 0 0
vn -1 0 0
usemtl m_f7eadb67-c32f-a73b-20ee-d4ce890b6313
f 109/1/1 111/2/1 110/3/1 112/4/1
f 1/5/2 16/6/2 15/7/2 3/8/2
f 90/9/3 88/10/3 95/11/3 96/12/3
f 7/13/4 9/14/4 10/15/4 5/16/4
f 9/17/5 11/18/5 12/19/5 10/20/5
f 11/21/6 13/22/6 14/23/6 12/24/6
f 13/25/7 15/26/7 16/27/7 14/28/7
f 5/29/8 10/30/8 17/31/8 6/32/8
f 119/33/9 120/34/9 121/35/9 122/36/9
f 113/37/10 114/38/10 115/39/10 116/40/10
f 14/41/11 16/42/11 20/43/11 19/44/11
f 8/45/12 42/46/12 37/47/12 21/48/12
f 21/49/13 37/50/13 33/51/13 22/52/13
f 93/53/14 94/54/14 89/55/14 87/56/14
f 87/57/15 89/58/15 88/59/15 90/60/15
f 19/61/16 25/62/16 26/63/16 18/64/16
f 67/65/17 64/66/17 66/67/17 68/68/17
f 64/69/18 63/70/18 65/71/18 66/72/18
f 28/73/19 30/74/19 31/75/19 29/76/19
f 30/77/20 32/78/20 33/79/20 31/80/20
f 103/81/21 97/82/21 100/83/21 104/84/21
f 97/85/22 98/86/22 99/87/22 100/88/22
f 27/89/23 29/90/23 36/91/23 35/92/23
f 78/93/24 79/94/24 80/95/24 81/96/24
f 79/97/25 82/98/25 83/99/25 80/100/25
f 17/101/26 34/102/26 38/103/26 6/104/26
f 100/105/27 99/106/27 101/107/27 102/108/27
f 35/109/28 36/110/28 40/111/28 39/112/28
f 81/113/29 80/114/29 85/115/29 86/116/29
f 80/117/30 83/118/30 84/119/30 85/120/30
f 20/121/31 43/122/31 25/123/31 19/124/31
f 69/125/32 61/126/32 64/127/32 67/128/32
f 61/129/33 62/130/33 63/131/33 64/132/33
f 45/133/34 46/134/34 30/135/34 28/136/34
f 91/137/35 88/138/35 89/139/35 92/140/35
f 2/141/36 48/142/36 43/143/36 20/144/36
f 48/145/37 49/146/37 44/147/37 43/148/37
f 105/149/38 106/150/38 107/151/38 108/152/38
f 50/153/39 51/154/39 46/155/39 45/156/39
f 51/157/40 52/158/40 47/159/40 46/160/40
f 54/161/41 53/162/41 44/163/41 45/164/41
f 55/165/42 54/166/42 45/167/42 28/168/42
f 56/169/43 55/170/43 28/171/43 29/172/43
f 57/173/44 56/174/44 29/175/44 27/176/44
f 59/177/45 57/178/45 27/179/45 26/180/45
f 58/181/46 59/182/46 26/183/46 25/184/46
f 53/185/47 60/186/47 43/187/47 44/188/47
f 60/189/48 58/190/48 25/191/48 43/192/48
f 62/193/49 61/194/49 53/195/49 54/196/49
f 63/197/50 62/198/50 54/199/50 55/200/50
f 65/201/51 63/202/51 55/203/51 56/204/51
f 66/205/52 65/206/52 56/207/52 57/208/52
f 68/209/53 66/210/53 57/211/53 59/212/53
f 67/213/54 68/214/54 59/215/54 58/216/54
f 61/217/55 69/218/55 60/219/55 53/220/55
f 69/221/56 67/222/56 58/223/56 60/224/56
f 71/225/57 70/226/57 29/227/57 31/228/57
f 70/229/58 72/230/58 36/231/58 29/232/58
f 73/233/59 71/234/59 31/235/59 33/236/59
f 74/237/60 73/238/60 33/239/60 37/240/60
f 75/241/61 74/242/61 37/243/61 42/244/61
f 76/245/62 75/246/62 42/247/62 41/248/62
f 77/249/63 76/250/63 41/251/63 40/252/63
f 72/253/64 77/254/64 40/255/64 36/256/64
f 79/257/65 78/258/65 70/259/65 71/260/65
f 78/261/66 81/262/66 72/263/66 70/264/66
f 82/265/67 79/266/67 71/267/67 73/268/67
f 83/269/68 82/270/68 73/271/68 74/272/68
f 84/273/69 83/274/69 74/275/69 75/276/69
f 85/277/70 84/278/70 75/279/70 76/280/70
f 86/281/71 85/282/71 76/283/71 77/284/71
f 81/285/72 86/286/72 77/287/72 72/288/72
f 87/289/73 90/290/73 24/291/73 23/292/73
f 88/293/74 91/294/74 46/295/74 47/296/74
f 92/297/75 89/298/75 32/299/75 30/300/75
f 91/301/76 92/302/76 30/303/76 46/304/76
f 94/305/77 93/306/77 22/307/77 33/308/77
f 89/309/78 94/310/78 33/311/78 32/312/78
f 93/313/79 87/314/79 23/315/79 22/316/79
f 95/317/80 88/318/80 47/319/80 52/320/80
f 96/321/81 95/322/81 52/323/81 4/324/81
f 90/325/82 96/326/82 4/327/82 24/328/82
f 98/329/83 97/330/83 26/331/83 27/332/83
f 99/333/84 98/334/84 27/335/84 35/336/84
f 101/337/85 99/338/85 35/339/85 39/340/85
f 102/341/86 101/342/86 39/343/86 38/344/86
f 100/345/87 102/346/87 38/347/87 34/348/87
f 97/349/88 103/350/88 18/351/88 26/352/88
f 104/353/89 100/354/89 34/355/89 17/356/89
f 103/357/90 104/358/90 17/359/90 18/360/90
f 106/361/91 105/362/91 49/363/91 50/364/91
f 107/365/92 106/366/92 50/367/92 45/368/92
f 108/369/93 107/370/93 45/371/93 44/372/93
f 105/373/94 108/374/94 44/375/94 49/376/94
f 111/377/95 109/378/95 2/379/95 20/380/95
f 110/381/96 111/382/96 20/383/96 16/384/96
f 112/385/97 110/386/97 16/387/97 1/388/97
f 109/389/98 112/390/98 1/391/98 2/392/98
f 114/393/99 113/394/99 12/395/99 14/396/99
f 115/397/100 114/398/100 14/399/100 19/400/100
f 116/401/101 115/402/101 19/403/101 18/404/101
f 113/405/102 117/406/102 10/407/102 12/408/102
f 118/409/103 116/410/103 18/411/103 17/412/103
f 117/413/104 118/414/104 17/415/104 10/416/104
f 120/417/105 119/418/105 117/419/105 113/420/105
f 121/421/106 120/422/106 113/423/106 116/424/106
f 122/425/107 121/426/107 116/427/107 118/428/107
f 119/429/108 122/430/108 118/431/108 117/432/108
f 4/433/109 52/434/109 127/435/109 123/436/109
f 52/437/110 51/438/110 126/439/110 127/440/110
f 50/441/111 125/442/111 126/443/111 51/444/111
f 50/445/112 49/446/112 124/447/112 125/448/112
f 49/449/113 48/450/113 3/451/113 124/452/113
f 3/453/114 48/454/114 2/455/114 1/456/114
f 8/457/115 128/458/115 132/459/115 42/460/115
f 42/461/116 132/462/116 131/463/116 41/464/116
f 130/465/117 40/466/117 41/467/117 131/468/117
f 40/469/118 130/470/118 129/471/118 39/472/118
f 7/473/119 38/474/119 39/475/119 129/476/119
f 38/477/120 7/478/120 5/479/120 6/480/120