# Made in Blockbench 5.1.1
mtllib cube_short.mtl

o Cube.001
v 1 1.625 -1
v -1 1.625 -1
v -1 1.625 1
v 1 1.625 1
v 1 0 1
v -1 0 1
v -1 0 -1
v 1 0 -1
vt 0 0
vt 1 0
vt 1 1
vt 0 1
vt 1 0
vt 1 1
vt 0 1
vt 0 0
vt 1 0
vt 1 1
vt 0 1
vt 0 0
vt 0 0
vt 1 0
vt 1 1
vt 0 1
vt 1 0
vt 1 1
vt 0 1
vt 0 0
vt 1 0
vt 1 1
vt 0 1
vt 0 0
vn 0 1 0
vn 0 0 1
vn -1 0 0
vn 0 -1 0
vn 1 0 0
vn 0 0 -1
usemtl none
f 1/1/1 2/2/1 3/3/1 4/4/1
f 5/5/2 4/6/2 3/7/2 6/8/2
f 6/9/3 3/10/3 2/11/3 7/12/3
f 7/13/4 8/14/4 5/15/4 6/16/4
f 8/17/5 1/18/5 4/19/5 5/20/5
f 7/21/6 2/22/6 1/23/6 8/24/6