# Made in Blockbench 5.1.1
mtllib cube_with_front.mtl

o mesh
v 1 2 1
v 1 2 -1
v 1 0 1
v 1 0 -1
v -1 2 1
v -1 2 -1
v -1 0 1
v -1 0 -1
vt 1 1
vt 0 1
vt 0 0
vt 1 0
vt 1 0
vt 1 1
vt 0 1
vt 0 0
vt 0 0
vt 1 0
vt 1 1
vt 0 1
vt 1 0
vt 1 1
vt 0 1
vt 0 0
vt 1 0
vt 1 1
vt 0 1
vt 0 0
vt 1 1
vt 0 1
vt 0 0
vt 1 0
vn 1 0 0
vn -1 0 0
vn 0 1 0
vn 0 -1 0
vn 0 0 1
vn 0 0 -1
usemtl m_9f7850a0-4c25-de68-1b41-988afc5c55d0
f 2/1/1 1/2/1 3/3/1 4/4/1
f 7/5/2 5/6/2 6/7/2 8/8/2
f 5/9/3 1/10/3 2/11/3 6/12/3
f 4/13/4 3/14/4 7/15/4 8/16/4
usemtl m_5ecc41b5-56d1-8c6f-a1d5-3572e30a98c7
f 3/17/5 1/18/5 5/19/5 7/20/5
usemtl m_9f7850a0-4c25-de68-1b41-988afc5c55d0
f 6/21/6 2/22/6 4/23/6 8/24/6