# Made in Blockbench 5.1.1
mtllib enemy_shoulder_alt.mtl

o beveled_cuboid
v -0.6875 1.5 0.125
v -0.6875 1.5 -0.125
v -0.3125 1.5 0.125
v -0.3125 1.5 -0.125
v -0.75 1.0625 0.125
v -0.75 1.0625 -0.125
v -0.5 1.125 0.125
v -0.5 1.125 -0.125
v -0.375 1.125 0.125
v -0.3125 1.375 0.125
v -0.375 1.125 -0.125
v -0.3125 1.375 -0.125
v -0.875 1 0.125
v -0.8125 1.375 0.125
v -0.875 1 -0.125
v -0.8125 1.375 -0.125
v -0.75 1.0625 -0.25
v -0.6875 1.375 -0.25
v -0.375 1.125 -0.25
v -0.3125 1.375 -0.25
v -0.75 1.0625 0.25
v -0.6875 1.375 0.25
v -0.375 1.125 0.25
v -0.3125 1.375 0.25
v -0.875 1.1875 -0.125
v -0.875 1.1875 0.125
v -0.75 1.21875 0.25
v -0.3125 1.25 0.25
v -0.3125 1.25 0.125
v -0.3125 1.25 -0.125
v -0.3125 1.25 -0.25
v -0.75 1.21875 -0.25
v -0.9327424999999998 1 0.1489175
v -0.9327424999999998 1.1875 0.1489175
v -0.7739175 1.21875 0.3077425
v -0.7739175 1.0625 0.3077425
v -0.330805625 1.25 0.294194375
v -0.330805625 1.125 0.294194375
v -0.3125 1.125 0.125
v -0.3125 1.125 -0.125
v -0.330805625 1.25 -0.294194375
v -0.330805625 1.125 -0.294194375
v -0.7739175 1.21875 -0.3077425
v -0.7739175 1.0625 -0.3077425
v -0.9327424999999998 1.1875 -0.1489175
v -0.9327424999999998 1 -0.1489175
vt 0.75283125 0.44328636363636365
vt 0.7073767045454545 0.44328636363636365
vt 0.7073767045454545 0.4792215909090909
vt 0.75283125 0.4792215909090909
vt 0.2840909090909091 0.8295454545454546
vt 0.23863636363636365 0.8295454545454546
vt 0.23863636363636365 0.8522727272727273
vt 0.2840909090909091 0.8522727272727273
vt 0.29545454545454547 0.34090909090909094
vt 0.36363636363636365 0.34090909090909094
vt 0.36363636363636365 0.2954545454545454
vt 0.29545454545454547 0.2954545454545454
vt 0.29808579545454544 0.9650530681818181
vt 0.29808579545454544 0.9195985227272727
vt 0.2512323863636364 0.9195985227272727
vt 0.2512323863636364 0.9650530681818181
vt 0.8977272727272727 0.40340909090909094
vt 0.8181818181818182 0.40909090909090906
vt 0.8181818181818182 0.43181818181818177
vt 0.8863636363636364 0.43181818181818177
vt 0.9204545454545454 0.6136363636363636
vt 0.8409090909090909 0.6079545454545454
vt 0.8522727272727273 0.6363636363636364
vt 0.9204545454545454 0.6363636363636364
vt 0.7073767045454545 0.4792215909090909
vt 0.7073767045454545 0.5113636363636364
vt 0.75283125 0.5113636363636364
vt 0.75283125 0.4792215909090909
vt 0.23863636363636365 0.875
vt 0.2840909090909091 0.875
vt 0.2840909090909091 0.8522727272727273
vt 0.23863636363636365 0.8522727272727273
vt 0.48863636363636365 0.4545454545454546
vt 0.5568181818181818 0.4545454545454546
vt 0.5568181818181818 0.4204545454545454
vt 0.48863636363636365 0.4204545454545454
vt 0.8068181818181818 0.44318181818181823
vt 0.8068181818181818 0.4772727272727273
vt 0.875 0.4772727272727273
vt 0.875 0.44318181818181823
vt 0.29808579545454544 0.9195985227272727
vt 0.29808579545454544 0.9650530681818181
vt 0.32349602272727274 0.9650530681818181
vt 0.32349602272727274 0.9195985227272727
vt 0.22850511363636364 0.9650530681818181
vt 0.2512323863636364 0.9650530681818181
vt 0.2512323863636364 0.9195985227272727
vt 0.22850511363636364 0.9195985227272727
vt 0.29808579545454544 0.987780340909091
vt 0.29808579545454544 0.9650530681818181
vt 0.2512323863636364 0.9650530681818181
vt 0.22918352272727274 0.987780340909091
vt 0.2512323863636364 0.9195985227272727
vt 0.29808579545454544 0.9195985227272727
vt 0.29808579545454544 0.89687125
vt 0.22918352272727274 0.89687125
vt 0.788479090909091 0.46573261363636365
vt 0.7633780681818181 0.4448704545454546
vt 0.75283125 0.47922238636363634
vt 0.7806411363636364 0.49527818181818184
vt 0.696895 0.4448971590909091
vt 0.6717481818181819 0.46570522727272723
vt 0.6795418181818182 0.49529272727272733
vt 0.7073414772727272 0.4792427272727273
vt 0.23863636363636365 0.8295454545454546
vt 0.2159090909090909 0.8295454545454546
vt 0.2159090909090909 0.8522727272727273
vt 0.23863636363636365 0.8522727272727273
vt 0.3068181818181818 0.8295454545454546
vt 0.2840909090909091 0.8295454545454546
vt 0.2840909090909091 0.8522727272727273
vt 0.3068181818181818 0.8522727272727273
vt 0.32349602272727274 0.9650530681818181
vt 0.29808579545454544 0.9650530681818181
vt 0.29808579545454544 0.987780340909091
vt 0.22850511363636364 0.987780340909091
vt 0.2512323863636364 0.9650530681818181
vt 0.22850511363636364 0.9650530681818181
vt 0.29808579545454544 0.89687125
vt 0.29808579545454544 0.9195985227272727
vt 0.32349602272727274 0.9195985227272727
vt 0.22850511363636364 0.9195985227272727
vt 0.2512323863636364 0.9195985227272727
vt 0.22850511363636364 0.89687125
vt 0.6795418181818182 0.49529272727272733
vt 0.7073767045454545 0.5113636363636364
vt 0.7073767045454545 0.47922238636363634
vt 0.2840909090909091 0.8522727272727273
vt 0.2840909090909091 0.875
vt 0.3068181818181818 0.8522727272727273
vt 0.75283125 0.47922238636363634
vt 0.75283125 0.5113636363636364
vt 0.7806662499999999 0.49529272727272733
vt 0.2159090909090909 0.8522727272727273
vt 0.23863636363636365 0.875
vt 0.23863636363636365 0.8522727272727273
vt 0.14772727272727273 1
vt 0.20454545454545456 1
vt 0.20454545454545456 0.9659090909090909
vt 0.14772727272727273 0.9659090909090909
vt 0.8863636363636364 0.4772727272727273
vt 0.9318181818181818 0.47159090909090906
vt 0.9318181818181818 0.4375
vt 0.8863636363636364 0.44886363636363635
vt 0.14764386363636364 0.18181818181818177
vt 0.15327 0.10121090909090913
vt 0.12513909090909092 0.09724488636363648
vt 0.12513909090909092 0.17864545454545455
vt 0.9204545454545454 0.7954545454545454
vt 0.9545454545454546 0.7954545454545454
vt 0.9545454545454546 0.7727272727272727
vt 0.9204545454545454 0.7727272727272727
vt 0.23863636363636365 0.8295454545454546
vt 0.2840909090909091 0.8295454545454546
vt 0.2840909090909091 0.8068181818181819
vt 0.23863636363636365 0.8068181818181819
vt 0.9204545454545454 0.5909090909090908
vt 0.9545454545454546 0.5909090909090908
vt 0.9545454545454546 0.5681818181818181
vt 0.9204545454545454 0.5681818181818181
vt 0.8452020454545455 0.5568181818181819
vt 0.9258093181818182 0.5511920454545454
vt 0.9226365909090909 0.5340909090909092
vt 0.8412361363636364 0.5340909090909092
vt 0.8863636363636364 0.09659090909090906
vt 0.9318181818181818 0.10227272727272729
vt 0.9318181818181818 0.07386363636363635
vt 0.8863636363636364 0.0625
vt 0.39840431818181815 0.28462875
vt 0.40890295454545456 0.28028
vt 0.37986284090909095 0.2510107954545454
vt 0.37548 0.26142636363636373
vt 0.2981446590909091 0.9877277272727273
vt 0.30214454545454544 0.998364090909091
vt 0.33352625 0.9698657954545454
vt 0.32349602272727274 0.9650530681818181
vt 0.3754553409090909 0.2614848863636364
vt 0.37986284090909095 0.2510107954545454
vt 0.2990830681818182 0.25293704545454543
vt 0.2957095454545455 0.2609539772727273
vt 0.2285052272727273 0.987780340909091
vt 0.22046988636363637 0.9958155681818182
vt 0.30180647727272725 0.9990489772727272
vt 0.29759352272727274 0.9886859090909091
vt 0.11507897727272728 0.9967629545454545
vt 0.12342556818181817 0.9943181818181818
vt 0.09248352272727273 0.9943181818181818
vt 0.22850511363636364 0.9650530681818181
vt 0.21714147727272728 0.9650530681818181
vt 0.22046988636363637 0.9958155681818182
vt 0.22850511363636364 0.987780340909091
vt 0.22850511363636364 0.9195985227272727
vt 0.21714147727272728 0.9195985227272727
vt 0.21714147727272728 0.9650530681818181
vt 0.22850511363636364 0.9650530681818181
vt 0.39042693181818183 0.12185113636363631
vt 0.39042693181818183 0.09090909090909094
vt 0.38798215909090905 0.09925568181818178
vt 0.22850511363636364 0.89687125
vt 0.22046988636363637 0.8888360227272727
vt 0.21714147727272728 0.9195985227272727
vt 0.22850511363636364 0.9195985227272727
vt 0.2956425 0.35369318181818177
vt 0.29901602272727273 0.36171
vt 0.37979579545454545 0.36363636363636365
vt 0.3753882954545455 0.35316227272727274
vt 0.29752829545454546 0.8968805681818182
vt 0.30183261363636366 0.8863636363636364
vt 0.22046988636363637 0.8888360227272727
vt 0.22842454545454546 0.8967906818181818
vt 0.3753882954545455 0.35316227272727274
vt 0.37979579545454545 0.36363636363636365
vt 0.40890295454545456 0.3344322727272727
vt 0.39846295454545455 0.33010784090909084
vt 0.3234371590909091 0.919545909090909
vt 0.33356318181818184 0.91438875
vt 0.3017539772727273 0.8863684090909091
vt 0.29808579545454544 0.89687125
vt 0.3984040909090909 0.33008340909090905
vt 0.40890295454545456 0.3344322727272727
vt 0.40890295454545456 0.28028
vt 0.3984040909090909 0.28462886363636364
vt 0.32349602272727274 0.9650530681818181
vt 0.33399488636363633 0.9694019318181818
vt 0.33399488636363633 0.915249659090909
vt 0.32349602272727274 0.9195985227272727
vn -0.948683298050514 0.316227766016838 0
vn 1 0 0
vn 0 1 0
vn 0.24253562503633297 -0.9701425001453319 0
vn 0 0 1
vn 0 0 -1
vn -0.7071067811865476 0.7071067811865476 0
vn 1 0 0
vn 0 0.7071067811865476 0.7071067811865476
vn 0 0.7071067811865476 -0.7071067811865476
vn 0.44721359549995804 -0.8944271909999161 0
vn 0 -1 0
vn 0.24253562503633297 -0.9701425001453319 0
vn 0.24253562503633297 -0.9701425001453319 0
vn -0.7158599835262722 0.23861999450875743 -0.656204984899083
vn -0.7124704998790965 0.2849881999516386 0.6412234498911868
vn 1 0 0
vn 1 0 0
vn 0.44721359549995804 -0.8944271909999161 0
vn 0 -1 0
vn 0.44721359549995804 -0.8944271909999161 0
vn 0 -1 0
vn -0.5773502691896258 0.5773502691896258 0.5773502691896258
vn 1 0 0
vn -0.5773502691896258 0.5773502691896258 -0.5773502691896258
vn 1 0 0
vn -1 0 0
vn -0.707106781186548 0 0.7071067811865472
vn 0.0305606724139484 0 0.9995329135659353
vn 0.9941980390518079 0 0.10756513908111746
vn 1 0 0
vn 0.9941980390518079 0 -0.10756513908111746
vn 0.030560672413948404 0 -0.9995329135659354
vn -0.707106781186548 0 -0.7071067811865471
vn -0.05698599416264476 0.9888503339543631 -0.13757766354913778
vn 0.26643568706604626 -0.9575137828915068 0.11036022938740396
vn -0.07121602732026061 0.9970246355646342 -0.029498364868724706
vn 0.13436950238353615 -0.9817788313354499 -0.13436950238353615
vn 0 -1 0
vn 0 -1 0
vn 0 -1 0
vn 0 -1 0
vn 0 -1 0
vn -0.07121602218742056 0.9970246412887691 0.029498183788199284
vn 0.1411793078032157 -0.9882554054775471 -0.05847782992394541
vn -0.13757766354913792 0.9888503339543632 0.05698599416264472
vn 0.11036022938740404 -0.9575137828915068 -0.266435687066046
vn 0 1 0
vn 0 -1 0
usemtl m_40a59f61-5dc0-d7ed-35ad-e34641e6720f
f 25/1/1 26/2/1 14/3/1 16/4/1
f 29/5/2 30/6/2 12/7/2 10/8/2
f 4/9/3 2/10/3 1/11/3 3/12/3
f 5/13/4 6/14/4 8/15/4 7/16/4
f 27/17/5 28/18/5 24/19/5 22/20/5
f 31/21/6 32/22/6 18/23/6 20/24/6
f 14/25/7 1/26/7 2/27/7 16/28/7
f 4/29/8 3/30/8 10/31/8 12/32/8
f 3/33/9 1/34/9 22/35/9 24/36/9
f 18/37/10 2/38/10 4/39/10 20/40/10
f 6/41/11 5/42/11 13/43/11 15/44/11
f 9/45/12 7/46/12 8/47/12 11/48/12
f 21/49/13 5/50/13 7/51/13 23/52/13
f 8/53/14 6/54/14 17/55/14 19/56/14
f 32/57/15 25/58/15 16/59/15 18/60/15
f 26/61/16 27/62/16 22/63/16 14/64/16
f 30/65/17 31/66/17 20/67/17 12/68/17
f 28/69/18 29/70/18 10/71/18 24/72/18
f 13/73/19 5/74/19 21/75/19
f 23/76/20 7/77/20 9/78/20
f 17/79/21 6/80/21 15/81/21
f 11/82/22 8/83/22 19/84/22
f 22/85/23 1/86/23 14/87/23
f 10/88/24 3/89/24 24/90/24
f 16/91/25 2/92/25 18/93/25
f 20/94/26 4/95/26 12/96/26
f 34/97/27 45/98/27 46/99/27 33/100/27
f 35/101/28 34/102/28 33/103/28 36/104/28
f 37/105/29 35/106/29 36/107/29 38/108/29
f 29/109/30 37/110/30 38/111/30 39/112/30
f 30/113/31 29/114/31 39/115/31 40/116/31
f 41/117/32 30/118/32 40/119/32 42/120/32
f 43/121/33 41/122/33 42/123/33 44/124/33
f 45/125/34 43/126/34 44/127/34 46/128/34
f 26/129/35 34/130/35 35/131/35 27/132/35
f 21/133/36 36/134/36 33/135/36 13/136/36
f 27/137/37 35/138/37 37/139/37 28/140/37
f 23/141/38 38/142/38 36/143/38 21/144/38
f 28/145/39 37/146/39 29/147/39
f 9/148/40 39/149/40 38/150/40 23/151/40
f 11/152/41 40/153/41 39/154/41 9/155/41
f 30/156/42 41/157/42 31/158/42
f 19/159/43 42/160/43 40/161/43 11/162/43
f 31/163/44 41/164/44 43/165/44 32/166/44
f 17/167/45 44/168/45 42/169/45 19/170/45
f 32/171/46 43/172/46 45/173/46 25/174/46
f 15/175/47 46/176/47 44/177/47 17/178/47
f 25/179/48 45/180/48 34/181/48 26/182/48
f 13/183/49 33/184/49 46/185/49 15/186/49