# Made in Blockbench 5.1.1
mtllib healthpickup.mtl

o mesh
v 0.0625 0.75 0.0625
v 0.0625 0.75 -0.0625
v 0.0625 0.375 0.0625
v 0.0625 0.375 -0.0625
v -0.0625 0.75 0.0625
v -0.0625 0.75 -0.0625
v -0.0625 0.375 0.0625
v -0.0625 0.375 -0.0625
v 0.0625 0.625 0.0625
v 0.0625 0.625 -0.0625
v 0.0625 0.5 0.0625
v 0.0625 0.5 -0.0625
v -0.0625 0.625 -0.0625
v -0.0625 0.5 -0.0625
v -0.0625 0.625 0.0625
v -0.0625 0.5 0.0625
v -0.0625 0.625 0.1875
v -0.0625 0.5 0.1875
v 0.0625 0.5 0.1875
v 0.0625 0.625 0.1875
v 0.0625 0.625 -0.1875
v 0.0625 0.5 -0.1875
v -0.0625 0.5 -0.1875
v -0.0625 0.625 -0.1875
vt 0.25 0.75
vt 0.25 0.875
vt 0.125 0.875
vt 0.125 0.75
vt 0.25 0.4375
vt 0.25 0.5625
vt 0.125 0.5625
vt 0.125 0.4375
vt 0.4375 0.875
vt 0.5625 0.875
vt 0.5625 1
vt 0.4375 1
vt 0.5625 0.6875
vt 0.5625 0.8125
vt 0.4375 0.8125
vt 0.4375 0.6875
vt 0.5625 0.5
vt 0.5625 0.625
vt 0.4375 0.625
vt 0.4375 0.5
vt 0.5 0.3125
vt 0.5 0.4375
vt 0.375 0.4375
vt 0.375 0.3125
vt 0.5625 0.4375
vt 0.5625 0.3125
vt 0.6875 0.3125
vt 0.6875 0.4375
vt 0.125 1
vt 0.125 0.875
vt 0.25 0.875
vt 0.25 1
vt 0 0.375
vt 0 0.25
vt 0.125 0.25
vt 0.125 0.375
vt 0.625 1
vt 0.625 0.875
vt 0.75 0.875
vt 0.75 1
vt 0.1875 0.375
vt 0.1875 0.25
vt 0.3125 0.25
vt 0.3125 0.375
vt 0.125 0.6875
vt 0.125 0.5625
vt 0.25 0.5625
vt 0.25 0.6875
vt 0.625 0.8125
vt 0.625 0.6875
vt 0.75 0.6875
vt 0.75 0.8125
vt 0.625 0.625
vt 0.625 0.5
vt 0.75 0.5
vt 0.75 0.625
vt 0.375 0.5625
vt 0.375 0.6875
vt 0.25 0.6875
vt 0.25 0.5625
vt 0.5 0.25
vt 0.375 0.25
vt 0.375 0.125
vt 0.5 0.125
vt 0 1
vt 0 0.875
vt 0.125 0.875
vt 0.125 1
vt 0.5625 0.125
vt 0.6875 0.125
vt 0.6875 0.25
vt 0.5625 0.25
vt 0.375 0.875
vt 0.375 1
vt 0.25 1
vt 0.25 0.875
vt 0.75 0.3125
vt 0.875 0.3125
vt 0.875 0.4375
vt 0.75 0.4375
vt 0 0.6875
vt 0 0.5625
vt 0.125 0.5625
vt 0.125 0.6875
vt 0.875 0.25
vt 0.75 0.25
vt 0.75 0.125
vt 0.875 0.125
vn 1 0 0
vn -1 0 0
vn 0 1 0
vn 0 -1 0
vn 0 0 1
vn 0 0 -1
vn 1 0 0
vn 1 0 0
vn 0 0 -1
vn 0 0 -1
vn -1 0 0
vn -1 0 0
vn 0 0 1
vn 0 0 1
vn -1 0 0
vn 0 -1 0
vn 1 0 0
vn 0 1 0
vn 1 0 0
vn 0 -1 0
vn -1 0 0
vn 0 1 0
usemtl m_6fb2bdf6-bf4d-bac1-e304-30c817d66459
f 4/1/1 12/2/1 11/3/1 3/4/1
f 7/5/2 16/6/2 14/7/2 8/8/2
f 5/9/3 1/10/3 2/11/3 6/12/3
f 4/13/4 3/14/4 7/15/4 8/16/4
f 3/17/5 11/18/5 16/19/5 7/20/5
f 8/21/6 14/22/6 12/23/6 4/24/6
f 1/25/7 9/26/7 10/27/7 2/28/7
f 9/29/8 11/30/8 12/31/8 10/32/8
f 2/33/9 10/34/9 13/35/9 6/36/9
f 21/37/10 22/38/10 23/39/10 24/40/10
f 6/41/11 13/42/11 15/43/11 5/44/11
f 13/45/12 14/46/12 16/47/12 15/48/12
f 5/49/13 15/50/13 9/51/13 1/52/13
f 17/53/14 18/54/14 19/55/14 20/56/14
f 18/57/15 17/58/15 15/59/15 16/60/15
f 19/61/16 18/62/16 16/63/16 11/64/16
f 20/65/17 19/66/17 11/67/17 9/68/17
f 17/69/18 20/70/18 9/71/18 15/72/18
f 22/73/19 21/74/19 10/75/19 12/76/19
f 23/77/20 22/78/20 12/79/20 14/80/20
f 24/81/21 23/82/21 14/83/21 13/84/21
f 21/85/22 24/86/22 13/87/22 10/88/22