# Made in Blockbench 5.1.1
mtllib model.mtl

o mesh
v -2.7755575615628914e-17 0.75 0.0625
v -2.7755575615628914e-17 0.75 -0.0625
v -2.7755575615628914e-17 0.5625 -0.0625
v 0 0.375 -0.0625
v 0 0.375 0.0625
v -2.7755575615628914e-17 0.5625 0.0625
v -0.1875 0.8125 0.0625
v -0.1875 0.8125 -0.0625
v -0.125 0.4375 0.0625
v -0.125 0.4375 -0.0625
v -0.1875 0.5625 0.0625
v -0.1875 0.5625 -0.0625
v -0.09374999999999999 0.75 0.0625
v -0.09374999999999999 0.75 -0.0625
v -0.09374999999999999 0.5625 -0.0625
v -0.03125 0.375 -0.0625
v -0.03125 0.375 0.0625
v -0.09374999999999999 0.5625 0.0625
v 0.1875 0.8125 0.0625
v 0.1875 0.8125 -0.0625
v 0.125 0.4375 0.0625
v 0.125 0.4375 -0.0625
v 0.1875 0.5625 0.0625
v 0.1875 0.5625 -0.0625
v 0.09374999999999999 0.75 0.0625
v 0.09374999999999999 0.75 -0.0625
v 0.09374999999999999 0.5625 -0.0625
v 0.03125 0.375 -0.0625
v 0.03125 0.375 0.0625
v 0.09374999999999999 0.5625 0.0625
vt 0.3125 0.625
vt 0.25 0.625
vt 0.25 0.555125
vt 0.3125 0.555125
vt 0.0625 0.6875
vt 0.0625 0.75
vt 0.006162499999999987 0.75
vt 0.006162499999999987 0.6875
vt 0.40625 0.6875
vt 0.40625 0.75
vt 0.3499125 0.75
vt 0.3499125 0.6875
vt 0.078125 0.78125
vt 0.046875 0.875
vt 0 0.875
vt 0.03125 0.8125
vt 0.359375 0.875
vt 0.328125 0.78125
vt 0.375 0.8125
vt 0.40625 0.875
vt 0.25 0.625
vt 0.3125 0.625
vt 0.3125 0.75
vt 0.25 0.75
vt 0.359375 0.96875
vt 0.359375 0.875
vt 0.40625 0.875
vt 0.40625 1
vt 0.046875 0.875
vt 0.046875 0.96875
vt 0 1
vt 0 0.875
vt 0.0625 0.75
vt 0.0625 0.6875
vt 0.109375 0.6875
vt 0.109375 0.75
vt 0.359375 0.875
vt 0.359375 0.96875
vt 0.3125 0.96875
vt 0.3125 0.875
vt 0.328125 0.78125
vt 0.359375 0.875
vt 0.3125 0.875
vt 0.3125 0.78125
vt 0.40625 0.75
vt 0.40625 0.6875
vt 0.421875 0.6875
vt 0.421875 0.75
vt 0.046875 0.875
vt 0.078125 0.78125
vt 0.09375 0.78125
vt 0.09375 0.875
vt 0.046875 0.96875
vt 0.046875 0.875
vt 0.09375 0.875
vt 0.09375 0.96875
vt 0.0625 0.461375
vt 0.0625 0.53125
vt 0 0.53125
vt 0 0.461375
vt 0.2125875 0.75
vt 0.15625 0.75
vt 0.15625 0.6875
vt 0.2125875 0.6875
vt 0.4938375 0.75
vt 0.4375 0.75
vt 0.4375 0.6875
vt 0.4938375 0.6875
vt 0.1875 0.875
vt 0.140625 0.875
vt 0.109375 0.78125
vt 0.15625 0.8125
vt 0.25 0.8125
vt 0.296875 0.78125
vt 0.265625 0.875
vt 0.21875 0.875
vt 0 0.65625
vt 0 0.53125
vt 0.0625 0.53125
vt 0.0625 0.65625
vt 0.21875 0.875
vt 0.265625 0.875
vt 0.265625 0.96875
vt 0.21875 1
vt 0.1875 1
vt 0.140625 0.96875
vt 0.140625 0.875
vt 0.1875 0.875
vt 0.109375 0.6875
vt 0.15625 0.6875
vt 0.15625 0.75
vt 0.109375 0.75
vt 0.3125 0.96875
vt 0.265625 0.96875
vt 0.265625 0.875
vt 0.3125 0.875
vt 0.3125 0.875
vt 0.265625 0.875
vt 0.296875 0.78125
vt 0.3125 0.78125
vt 0.421875 0.6875
vt 0.4375 0.6875
vt 0.4375 0.75
vt 0.421875 0.75
vt 0.09375 0.78125
vt 0.109375 0.78125
vt 0.140625 0.875
vt 0.09375 0.875
vt 0.09375 0.875
vt 0.140625 0.875
vt 0.140625 0.96875
vt 0.09375 0.96875
vn -0.8944271909999161 -0.44721359549995804 0
vn 0.554700196225229 0.8320502943378437 0
vn -0.5547001962252291 -0.8320502943378437 0
vn 0 0 1
vn 0 0 -1
vn -1 0 0
vn 0 0 -1
vn 0 0 1
vn 0 1 0
vn 0 0 -1
vn 0 0 -1
vn 0 -1 0
vn 0 0 1
vn 0 0 1
vn 0.8944271909999161 -0.44721359549995804 0
vn -0.554700196225229 0.8320502943378437 0
vn 0.5547001962252291 -0.8320502943378437 0
vn 0 0 1
vn 0 0 -1
vn 1 0 0
vn 0 0 -1
vn 0 0 1
vn 0 1 0
vn 0 0 -1
vn 0 0 -1
vn 0 -1 0
vn 0 0 1
vn 0 0 1
usemtl m_aac1859c-1dfc-fdd6-c3d1-39f6086454e8
f 11/1/1 12/2/1 10/3/1 9/4/1
f 13/5/2 14/6/2 8/7/2 7/8/2
f 16/9/3 17/10/3 9/11/3 10/12/3
f 17/13/4 18/14/4 11/15/4 9/16/4
f 15/17/5 16/18/5 10/19/5 12/20/5
f 12/21/6 11/22/6 7/23/6 8/24/6
f 14/25/7 15/26/7 12/27/7 8/28/7
f 18/29/8 13/30/8 7/31/8 11/32/8
f 14/33/9 13/34/9 1/35/9 2/36/9
f 15/37/10 14/38/10 2/39/10 3/40/10
f 16/41/11 15/42/11 3/43/11 4/44/11
f 17/45/12 16/46/12 4/47/12 5/48/12
f 18/49/13 17/50/13 5/51/13 6/52/13
f 13/53/14 18/54/14 6/55/14 1/56/14
f 22/57/15 24/58/15 23/59/15 21/60/15
f 20/61/16 26/62/16 25/63/16 19/64/16
f 21/65/17 29/66/17 28/67/17 22/68/17
f 23/69/18 30/70/18 29/71/18 21/72/18
f 22/73/19 28/74/19 27/75/19 24/76/19
f 19/77/20 23/78/20 24/79/20 20/80/20
f 24/81/21 27/82/21 26/83/21 20/84/21
f 19/85/22 25/86/22 30/87/22 23/88/22
f 1/89/23 25/90/23 26/91/23 2/92/23
f 2/93/24 26/94/24 27/95/24 3/96/24
f 3/97/25 27/98/25 28/99/25 4/100/25
f 4/101/26 28/102/26 29/103/26 5/104/26
f 5/105/27 29/106/27 30/107/27 6/108/27
f 6/109/28 30/110/28 25/111/28 1/112/28