# Made in Blockbench 5.1.1
mtllib platform.mtl

o mesh
v 1 2.1875 1
v 1 2.1875 -1
v 1 1.875 1
v 1 1.875 -1
v -1 2.1875 1
v -1 2.1875 -1
v -1 1.875 1
v -1 1.875 -1
vt 1 0.8888888888888888
vt 0 0.8888888888888888
vt 0 1.09375
vt 1 1.09375
vt 1 1.09375
vt 1 0.8888888888888888
vt 0 0.8888888888888888
vt 0 1.09375
vt 0 0
vt 1 0
vt 1 1
vt 0 1
vt 1 0
vt 1 1
vt 0 1
vt 0 0
vt 1 1.09375
vt 1 0.8888888888888888
vt 0 0.8888888888888888
vt 0 1.09375
vt 1 0.8888888888888888
vt 0 0.8888888888888888
vt 0 1.09375
vt 1 1.09375
vn 1 0 0
vn -1 0 0
vn 0 1 0
vn 0 -1 0
vn 0 0 1
vn 0 0 -1
usemtl m_f92bc042-cf9a-ddf2-2d58-0b381a7e8e0c
f 2/1/1 1/2/1 3/3/1 4/4/1
f 7/5/2 5/6/2 6/7/2 8/8/2
usemtl m_903b670e-c695-8e16-481e-2044f40adb0e
f 5/9/3 1/10/3 2/11/3 6/12/3
usemtl m_f92bc042-cf9a-ddf2-2d58-0b381a7e8e0c
f 4/13/4 3/14/4 7/15/4 8/16/4
f 3/17/5 1/18/5 5/19/5 7/20/5
f 6/21/6 2/22/6 4/23/6 8/24/6