# Blender 4.4.3
# www.blender.org
mtllib Wedge.mtl
o Cube
v 4.000000 -0.000000 -4.000000
v 4.000000 8.000000 3.999999
v 4.000000 0.000000 4.000000
v -4.000000 -0.000000 -4.000000
v -4.000000 8.000000 3.999999
v -4.000000 0.000000 4.000000
v 4.000000 3.836268 -2.735587
v 4.045256 7.244939 -0.046236
v -4.000000 3.836268 -2.735587
v -3.954745 7.244939 -0.046236
vn 0.8267 0.3989 -0.3969
vn -0.8600 0.5042 -0.0784
vn -0.5976 0.3821 0.7049
vn 0.6687 0.3703 0.6448
vn 0.5764 -0.5782 0.5774
vn -0.5783 -0.5765 0.5773
vn -0.4160 0.1432 -0.8980
vn -0.6016 -0.7773 -0.1842
vn 0.1303 -0.6078 -0.7833
vn 0.5192 0.1606 -0.8395
vt 0.000000 0.666667
vt 1.000000 0.666667
vt 1.000000 1.000000
vt 0.000000 1.000000
vt 1.000000 0.000000
vt 0.000000 0.000000
vt 0.841948 0.479533
vt 0.505779 0.905618
vt 1.000000 0.333333
vt 0.000000 0.333333
vt 0.000000 1.000000
s 1
usemtl Material.001
f 8/1/1 10/2/2 5/3/3 2/4/4
f 3/5/5 2/3/4 5/4/3 6/6/6
f 9/7/7 6/6/6 10/8/2
f 4/6/8 1/5/9 3/3/5 6/4/6
f 3/6/5 7/7/10 8/8/1
f 1/6/9 4/5/8 9/9/7 7/10/10
f 7/10/10 9/9/7 10/2/2 8/1/1
f 4/5/8 6/6/6 9/7/7
f 6/6/6 5/11/3 10/8/2
f 8/8/1 2/11/4 3/6/5
f 3/6/5 1/5/9 7/7/10
