# Made in Blockbench 5.0.6
mtllib Roof.mtl

o Roof
v 1 2 -1
v -1 2 -1
v -1 0 -1
v 1 0 -1
v 1 0 1
v -1 0 1
v 1.125 1.875 -1
v 1.125 -0.125 1
v -1.125 -0.125 1
v -1.125 1.875 -1
vt 1 0
vt 1 1
vt 0 0
vt 1 0
vt 1 1
vt 0 1
vt 0 0
vt 0 1
vt 0 0
vt 1 0
vt 0 2.220446049250313e-16
vt 0.9996918335901386 2.220446049250313e-16
vt 0.9996918335901386 1
vt 0 1
vt 0.28125 1
vt 0.25 1
vt 0.25 -0.4142125000000001
vt 0.28125 -0.4142125000000001
vt 0.21875 -0.4142125000000001
vt 0.28125 -0.4142125000000001
vt 0.28125 1
vt 0.21875 1
vn 1 0 0
vn 0 0 -1
vn -1 0 0
vn 0 0.7071067811865476 0.7071067811865476
vn -0.5773502691896258 -0.5773502691896258 -0.5773502691896258
vn 0.5773502691896258 -0.5773502691896258 -0.5773502691896258
usemtl m_f64b907a-eda9-bea0-c661-9816d62189ec
f 4/1/1 1/2/1 5/3/1
f 3/4/2 2/5/2 1/6/2 4/7/2
f 2/8/3 3/9/3 6/10/3
usemtl m_a800cce2-d4d7-93ba-ae3b-8ba299ec6d50
f 6/11/4 5/12/4 1/13/4 2/14/4
f 1/15/5 7/16/5 8/17/5 5/18/5
f 6/19/6 9/20/6 10/21/6 2/22/6